<svg id="oknoway-logo" data-name="oknoway-logo" xmlns="http://www.w3.org/2000/svg" viewBox="0 0 264.16 82.23" preserveAspectRatio="xMinYMin meet" ><defs><style>.cls-1{fill:#ed1c24;}.cls-2{fill:#00aeef;}</style></defs><title>oknoway_logo</title><path id="thumbs-up" class="cls-1 thumbs" d="M263.29,20.47s-10.62-.13-16.47,1.19A21.61,21.61,0,0,0,243,22.84V21.65s3-3.71,3.16-7.24C247-.6,232.73,0,232.73,0L232.42,27.6l-16.88.77,1.25,15-3.43-.44L215.86,54l24.77-1.13c2.17,3,5.09,4.8,8.39,4.68,8.8-.32,14.82-0.38,15.15-1.26l-0.87-35.85M253.6,31l-16.23.34c0.11-.62.23-1.19,0.37-1.73l15.83-.33A0.86,0.86,0,0,1,253.6,31Zm0.52,9.48-17.39.36c0-.57,0-1.14,0-1.72l17.4-.37A0.86,0.86,0,0,1,254.12,40.47Zm0.78,9.6-15.78.33c-0.27-.54-0.52-1.11-0.75-1.7l16.49-.34A0.86,0.86,0,0,1,254.9,50.07ZM234.57,2.74s8,3.24-.3,9.3Z"/><path id="word-way" class="cls-2" d="M191.4,29.95l8.4,22.73h-4.61L193.48,48h-7.69L184,52.68h-4.55L188,29.95h3.35m-11,0-5.49,16.24h-0.06l-2-5.75,4-10.49h-4.55l-1.52,4.5-1.57-4.5h-4.61l4,10.89-1.81,5.35h-0.06l-5.67-16.24h-4.61l8.4,22.73h3.35l2.42-6.37L173,52.68h3.35L185,29.95h-4.55Zm30.9,0h-5.05l-4.56,8.28-3.06-8.28h-4.61l8.4,22.73h4.61l-3.48-9.42Z"/><g id="word-no"><polygon id="letter-n" class="cls-2" points="125.28 44.98 125.22 44.98 113.56 29.5 110.45 29.5 110.45 52.23 114.77 52.23 114.77 37.2 114.83 37.2 126.48 52.67 129.6 52.67 129.6 30.09 125.28 30.09 125.28 44.98"/><path id="letter-o" class="cls-2" d="M141.63,29.51c-6.46,0-11,5.43-11,11.63s4.49,11.69,11,11.69,11-5.34,11-11.69S148.09,29.51,141.63,29.51ZM147.86,35a0.54,0.54,0,0,1-.26.07,0.54,0.54,0,0,1-.48-0.28,4.64,4.64,0,0,0-3.31-2.11,0.54,0.54,0,0,1,.12-1.08,5.7,5.7,0,0,1,4.15,2.67A0.54,0.54,0,0,1,147.86,35Z"/></g><g id="letter-slash"><polygon class="cls-1" points="108.75 29.5 104.25 29.5 101.01 40.87 105.52 40.87 108.75 29.5"/><polygon class="cls-2" points="99.92 40.87 96.69 52.23 101.19 52.23 104.42 40.87 99.92 40.87"/></g><g id="word-ok"><path id="letter-o-2" data-name="letter-o" class="cls-1" d="M65.38,29.51c-6.46,0-11,5.43-11,11.63s4.49,11.69,11,11.69,11-5.34,11-11.69S71.84,29.51,65.38,29.51ZM72.11,35a0.54,0.54,0,0,1-.26.07,0.54,0.54,0,0,1-.48-0.28,4.64,4.64,0,0,0-3.31-2.11,0.54,0.54,0,0,1,.12-1.08,5.7,5.7,0,0,1,4.15,2.67A0.54,0.54,0,0,1,72.11,35Z"/><polygon id="letter-k" class="cls-1" points="85.75 40.31 94.15 30.09 88.84 30.09 81.99 39.43 81.93 39.43 81.93 30.09 77.62 30.09 77.62 52.23 81.93 52.23 81.93 42.28 81.99 42.28 89.07 52.23 94.62 52.23 85.75 40.31"/></g><path id="thumbs-down" class="cls-2 thumb" d="M52.07,53.7l-2-19.21L47,36.35l-1.58-8-21.86,1c-2.17-3-5.09-4.8-8.38-4.68C6.35,25,.33,25,0,25.91L0.87,61.76s10.62,0.13,16.47-1.19a21.75,21.75,0,0,0,3.86-1.18v1.19s-3,3.71-3.16,7.24c-0.83,15,13.39,14.4,13.39,14.4l0.32-27.6,20.33-.93M10.56,51.24l16.23-.34q-0.16.92-.36,1.73L10.6,53A0.86,0.86,0,0,1,10.56,51.24ZM10,41.76l17.39-.36c0,0.57,0,1.14,0,1.72l-17.4.37A0.86,0.86,0,0,1,10,41.76Zm-0.78-9.6L25,31.83c0.27,0.54.52,1.11,0.75,1.7L9.3,33.88A0.86,0.86,0,1,1,9.26,32.16ZM29.58,79.49s-8-3.24.3-9.3Z"/></svg>
